<svg width="1512" height="982" viewBox="0 0 1512 982" fill="none" xmlns="http://www.w3.org/2000/svg">
<g clip-path="url(#clip0_13_2)">
<rect width="1512" height="982" fill="white"/>
<rect width="1512" height="982" fill="#050B1B"/>
<path opacity="0.0152542" d="M2102.78 103.5L1809.95 70.9081C1679.01 56.3339 1546.47 70.7127 1421.7 113.027L1335.11 142.393C1177.03 196.005 1004.56 188.2 851.968 120.529V120.529C690.194 48.7859 506.495 44.4882 341.543 108.587L234.3 150.26C109.876 198.61 -28.6504 195.609 -150.864 141.916V141.916C-311.739 71.2387 -497.814 89.476 -641.904 190.044L-666.544 207.241C-826.677 319.005 -1037.03 327.976 -1206.09 230.251V230.251C-1310.43 169.945 -1432.94 149.102 -1551.34 171.517L-1577.01 176.376C-1689.66 197.702 -1806.11 184.761 -1911.33 139.225L-2064.1 73.1111" stroke="#E9E9E9" stroke-width="2"/>
<path opacity="0.0305085" d="M2089.55 128.852L1801.44 96.644C1672.55 82.2345 1542.06 96.4464 1419.29 138.266L1334.13 167.275C1178.56 220.266 1008.72 212.555 858.594 145.685V145.685C699.439 74.7937 518.533 70.5481 356.228 133.895L250.761 175.059C128.329 222.844 -8.09519 219.879 -128.335 166.821V166.821C-286.563 97.0004 -469.782 114.999 -611.4 214.275L-635.889 231.442C-793.332 341.813 -1000.55 350.666 -1166.84 254.127V254.127C-1269.47 194.541 -1390.14 173.944 -1506.73 196.112L-1531.83 200.885C-1642.68 221.962 -1757.3 209.178 -1860.79 164.197L-2011.2 98.814" stroke="#E9E9E9" stroke-width="2"/>
<path opacity="0.0457627" d="M2076.33 154.205L1792.93 122.38C1666.09 108.135 1537.66 122.18 1416.88 163.505L1333.15 192.156C1180.1 244.527 1012.88 236.91 865.219 170.842V170.842C708.685 100.802 530.57 96.6087 370.913 159.204L267.221 199.858C146.783 247.078 12.4597 244.149 -105.806 191.727V191.727C-261.389 122.763 -441.752 140.522 -580.896 238.505L-605.233 255.644C-759.988 364.62 -964.075 373.356 -1127.58 278.002V278.002C-1228.51 219.137 -1347.34 198.786 -1462.11 220.708L-1486.64 225.393C-1595.69 246.222 -1708.49 233.595 -1810.24 189.169L-1958.3 124.517" stroke="#E9E9E9" stroke-width="2"/>
<path opacity="0.061017" d="M2063.1 179.557L1784.42 148.116C1659.62 134.036 1533.25 147.914 1414.48 188.744L1332.17 217.038C1181.63 268.787 1017.04 261.264 871.845 195.998V195.998C717.931 126.811 542.608 122.669 385.599 184.513L283.681 224.657C165.237 271.311 33.0146 268.419 -83.2767 216.632V216.632C-236.213 148.525 -413.721 166.045 -550.392 262.735L-574.577 279.845C-726.642 387.426 -927.598 396.044 -1088.32 301.878V301.878C-1187.55 243.733 -1304.54 223.628 -1417.5 245.303L-1441.46 249.902C-1548.71 270.482 -1659.68 258.012 -1759.69 214.142L-1905.41 150.22" stroke="#E9E9E9" stroke-width="2"/>
<path opacity="0.0762712" d="M2049.88 204.909L1775.92 173.853C1653.16 159.937 1528.84 173.648 1412.07 213.983L1331.19 241.919C1183.17 293.048 1021.19 285.619 878.471 221.155V221.155C727.177 152.819 554.645 148.731 400.284 209.823L300.142 249.456C183.691 295.544 53.5693 292.689 -60.7476 241.537V241.537C-211.038 174.289 -385.69 191.568 -519.889 286.963L-543.922 304.047C-693.298 410.231 -891.122 418.732 -1049.06 325.754V325.754C-1146.6 268.33 -1261.74 248.47 -1372.88 269.899L-1396.28 274.411C-1501.73 294.743 -1610.87 282.43 -1709.14 239.116L-1852.51 175.923" stroke="#E9E9E9" stroke-width="2"/>
<path opacity="0.0915254" d="M2036.65 230.261L1767.41 199.589C1646.7 185.838 1524.44 199.382 1409.66 239.221L1330.21 266.799C1184.7 317.307 1025.35 309.972 885.096 246.311V246.311C736.423 178.828 566.681 174.792 414.969 235.132L316.602 274.254C202.145 319.777 74.1239 316.958 -38.2184 266.442V266.442C-185.862 200.052 -357.659 217.092 -489.385 311.19L-513.266 328.25C-659.952 433.036 -854.646 441.419 -1009.8 349.629V349.629C-1105.64 292.927 -1218.94 273.312 -1328.27 294.495L-1351.1 298.919C-1454.75 319.003 -1562.06 306.847 -1658.59 264.089L-1799.61 201.626" stroke="#E9E9E9" stroke-width="2"/>
<path opacity="0.10678" d="M2023.43 255.614L1758.9 225.326C1640.23 211.739 1520.03 225.116 1407.26 264.46L1329.24 291.68C1186.24 341.567 1029.51 334.326 891.722 271.468V271.468C745.67 204.838 578.718 200.854 429.654 260.442L333.063 299.053C220.6 344.009 94.6786 341.227 -15.6889 291.347V291.347C-160.686 225.816 -329.628 242.615 -458.881 335.416L-482.609 352.452C-626.606 455.839 -818.17 464.105 -970.537 373.504V373.504C-1064.68 317.524 -1176.14 298.155 -1283.65 319.092L-1305.92 323.428C-1407.76 343.263 -1513.25 331.264 -1608.04 289.063L-1746.71 227.329" stroke="#E9E9E9" stroke-width="2"/>
<path opacity="0.122034" d="M2010.2 280.966L1750.39 251.062C1633.77 237.64 1515.63 250.85 1404.85 289.699L1328.26 316.56C1187.78 365.826 1033.67 358.679 898.348 296.624V296.624C754.917 230.848 590.754 226.917 444.339 285.751L349.524 323.851C239.055 368.241 115.233 365.495 6.8404 316.252V316.252C-135.51 251.581 -301.598 268.139 -428.378 359.641L-451.952 376.655C-593.26 478.642 -781.695 486.789 -931.278 397.379V397.379C-1023.72 342.121 -1133.34 322.998 -1239.04 343.689L-1260.73 347.937C-1360.78 367.522 -1464.44 355.682 -1557.49 314.038L-1693.81 253.032" stroke="#E9E9E9" stroke-width="2"/>
<path opacity="0.137288" d="M1996.98 306.318L1741.88 276.799C1627.31 263.541 1511.22 276.584 1402.45 314.937L1327.28 341.44C1189.32 390.084 1037.82 383.032 904.974 321.781V321.781C764.163 256.858 602.79 252.979 459.023 311.061L365.984 348.649C257.509 392.473 135.787 389.764 29.3695 341.157V341.157C-110.333 277.346 -273.567 293.663 -397.875 383.864L-421.296 400.859C-559.914 501.444 -745.22 509.473 -892.019 421.254V421.254C-982.768 366.718 -1090.54 347.841 -1194.42 368.287L-1215.55 372.445C-1313.8 391.782 -1415.63 380.099 -1506.94 339.013L-1640.91 278.735" stroke="#E9E9E9" stroke-width="2"/>
<path opacity="0.152542" d="M1983.75 331.671L1733.37 302.536C1620.85 289.442 1506.81 302.319 1400.04 340.176L1326.3 366.319C1190.85 414.343 1041.98 407.385 911.599 346.937V346.937C773.41 282.869 614.826 279.043 473.708 336.372L382.445 373.447C275.964 416.704 156.341 414.031 51.8986 366.061V366.061C-85.1569 303.112 -245.537 319.187 -367.373 408.086L-390.639 425.063C-526.568 524.245 -708.746 532.156 -852.76 445.128V445.128C-941.811 391.315 -1047.74 372.684 -1149.81 392.885L-1170.37 396.954C-1266.82 416.042 -1366.82 404.517 -1456.39 363.989L-1588.02 304.438" stroke="#E9E9E9" stroke-width="2"/>
<path opacity="0.167797" d="M1970.53 357.023L1724.87 328.273C1614.38 315.344 1502.41 328.053 1397.63 365.414L1325.32 391.198C1192.39 438.6 1046.14 431.737 918.225 372.094V372.094C782.658 308.88 626.861 305.106 488.392 361.682L398.906 398.244C294.42 440.935 176.894 438.299 74.4279 390.966V390.966C-59.9801 328.878 -217.507 344.711 -336.87 432.306L-359.982 449.267C-493.222 547.045 -672.271 554.837 -813.5 469.003V469.003C-900.853 415.913 -1004.95 397.528 -1105.2 417.484L-1125.19 421.462C-1219.83 440.302 -1318.01 428.934 -1405.84 388.965L-1535.12 330.141" stroke="#E9E9E9" stroke-width="2"/>
<path opacity="0.183051" d="M1957.3 382.375L1716.36 354.011C1607.92 341.245 1498 353.787 1395.23 390.652L1324.35 416.077C1193.93 462.858 1050.29 456.089 924.851 397.25V397.25C791.906 334.892 638.896 331.171 503.077 386.993L415.367 423.042C312.876 465.166 197.448 462.566 96.9571 415.871V415.871C-34.8029 354.645 -189.477 370.236 -306.368 456.525L-329.325 473.472C-459.875 569.845 -635.797 577.517 -774.241 492.877V492.877C-859.895 440.51 -962.148 422.372 -1060.59 442.083L-1080 445.971C-1172.85 464.561 -1269.19 453.352 -1355.29 413.942L-1482.22 355.844" stroke="#E9E9E9" stroke-width="2"/>
<path opacity="0.198305" d="M1944.08 407.728L1707.85 379.748C1601.46 367.147 1493.59 379.522 1392.82 415.891L1323.37 440.955C1195.47 487.115 1054.45 480.44 931.476 422.407V422.407C801.153 360.904 650.93 357.236 517.76 412.304L431.827 447.839C331.331 489.396 218.001 486.833 119.486 440.776V440.776C-9.62607 380.413 -161.448 395.761 -275.866 480.743L-298.668 497.678C-426.528 592.643 -599.323 600.196 -734.983 516.75V516.75C-818.938 465.108 -919.351 447.217 -1015.98 466.682L-1034.82 470.479C-1125.87 488.821 -1220.38 477.769 -1304.74 438.92L-1429.32 381.547" stroke="#E9E9E9" stroke-width="2"/>
<path opacity="0.213559" d="M1930.85 433.08L1699.35 405.486C1595 393.048 1489.19 405.256 1390.41 441.129L1322.39 465.833C1197.01 511.371 1058.6 504.791 938.102 447.564V447.564C810.401 386.917 662.965 383.301 532.445 437.615L448.288 472.636C349.787 513.626 238.554 511.1 142.015 465.68V465.68C15.5517 406.182 -133.418 421.286 -245.365 504.958L-268.01 521.884C-393.18 615.439 -562.85 622.873 -695.724 540.624V540.624C-777.98 489.706 -876.554 472.061 -971.366 491.283L-989.641 494.987C-1078.88 513.08 -1171.57 502.187 -1254.19 463.898L-1376.42 407.25" stroke="#E9E9E9" stroke-width="2"/>
<path opacity="0.228814" d="M1917.63 458.432L1690.84 431.223C1588.54 418.95 1484.78 430.991 1388.01 466.367L1321.42 490.71C1198.55 535.627 1062.76 529.142 944.728 472.72V472.72C819.65 412.93 674.999 409.367 547.129 462.927L464.75 497.432C368.244 537.855 259.107 535.365 164.545 490.585V490.585C40.7299 431.951 -105.388 446.812 -214.863 529.172L-237.351 546.09C-359.833 638.235 -526.377 645.549 -656.464 564.497V564.497C-737.022 514.305 -833.757 496.906 -926.756 515.884L-944.458 519.496C-1031.9 537.339 -1122.76 526.605 -1203.64 488.877L-1323.52 432.953" stroke="#E9E9E9" stroke-width="2"/>
<path opacity="0.244068" d="M1904.41 483.784L1682.34 456.961C1582.08 444.852 1480.37 456.725 1385.6 491.605L1320.44 515.587C1200.08 559.882 1066.91 553.492 951.354 497.877V497.877C828.899 438.944 687.032 435.434 561.812 488.239L481.21 522.229C386.7 562.084 279.659 559.631 187.074 515.489V515.489C65.9076 457.721 -77.3589 472.337 -184.363 553.384L-206.693 570.297C-326.485 661.029 -489.905 668.224 -617.206 588.37V588.37C-696.065 538.903 -790.962 521.752 -882.147 540.485L-899.276 544.004C-984.917 561.598 -1073.95 551.023 -1153.09 513.857L-1270.62 458.656" stroke="#E9E9E9" stroke-width="2"/>
<path opacity="0.259322" d="M1891.18 509.137L1673.83 482.7C1575.62 470.753 1475.97 482.46 1383.2 516.843L1319.46 540.463C1201.62 584.136 1071.07 577.841 957.979 523.034V523.034C838.148 464.959 699.065 461.502 576.496 513.551L497.672 547.025C405.157 586.312 300.212 583.896 209.603 540.393V540.393C91.0859 483.492 -49.3298 497.863 -153.863 577.594L-176.035 594.505C-293.137 683.822 -453.433 690.896 -577.948 612.243V612.243C-655.107 563.502 -748.167 546.598 -837.539 565.087L-854.094 568.512C-937.933 585.857 -1025.14 575.441 -1102.54 538.837L-1217.73 484.359" stroke="#E9E9E9" stroke-width="2"/>
<path opacity="0.274576" d="M1877.96 534.489L1665.33 508.438C1569.16 496.656 1471.56 508.195 1380.79 542.081L1318.49 565.339C1203.17 608.39 1075.22 602.19 964.605 548.19V548.19C847.397 490.974 711.098 487.57 591.18 538.864L514.133 571.821C423.615 610.539 320.764 608.16 232.132 565.298V565.298C116.265 509.264 -21.3005 523.39 -123.362 601.801L-145.375 618.713C-259.788 706.613 -416.96 713.567 -538.689 636.115V636.115C-614.149 588.102 -705.372 571.445 -792.931 589.691L-808.911 593.021C-890.949 610.116 -976.329 599.859 -1051.98 563.819L-1164.83 510.062" stroke="#E9E9E9" stroke-width="2"/>
<path opacity="0.289831" d="M1864.73 559.841L1656.82 534.177C1562.7 522.558 1467.15 533.93 1378.38 567.318L1317.51 590.214C1204.71 632.643 1079.38 626.538 971.231 573.347V573.347C856.647 516.99 723.13 513.639 605.863 564.177L530.595 596.616C442.072 634.766 341.316 632.424 254.661 590.202V590.202C141.444 535.037 6.7281 548.917 -92.8635 626.007L-114.716 642.922C-226.439 729.403 -380.489 736.236 -499.43 659.987V659.987C-573.191 612.701 -662.578 596.291 -748.325 614.294L-763.729 617.528C-843.965 634.375 -927.518 624.277 -1001.43 588.801L-1111.93 535.765" stroke="#E9E9E9" stroke-width="2"/>
<path opacity="0.305085" d="M1851.51 585.194L1648.32 559.916C1556.24 548.46 1462.75 559.665 1375.98 592.556L1316.54 615.089C1206.25 656.895 1083.53 650.886 977.857 598.504V598.504C865.897 543.007 735.162 539.71 620.547 589.491L547.056 621.411C460.53 658.992 361.867 656.687 277.191 615.106V615.106C166.624 560.811 34.757 574.444 -62.3644 650.21L-84.0559 667.132C-193.089 752.191 -344.018 758.903 -460.172 683.858V683.858C-532.233 637.301 -619.785 621.139 -703.719 638.899L-718.546 642.037C-796.98 658.633 -878.706 648.695 -950.877 613.784L-1059.03 561.468" stroke="#E9E9E9" stroke-width="2"/>
<path opacity="0.320339" d="M1838.28 610.546L1639.82 585.655C1549.78 574.363 1458.34 585.4 1373.57 617.794L1315.56 639.962C1207.79 681.146 1087.69 675.232 984.483 623.661V623.661C875.148 569.025 747.193 565.781 635.23 614.805L563.518 646.206C478.989 683.218 382.418 680.95 299.72 640.01V640.01C191.804 586.587 62.7852 599.972 -31.8664 674.411L-53.3954 691.342C-159.74 774.977 -307.548 781.567 -420.914 707.729V707.729C-491.275 661.901 -576.992 645.987 -659.114 663.505L-673.364 666.544C-749.996 682.891 -829.895 673.113 -900.324 638.769L-1006.13 587.171" stroke="#E9E9E9" stroke-width="2"/>
<path opacity="0.335593" d="M1825.06 635.898L1631.32 611.395C1543.32 600.265 1453.93 611.135 1371.17 643.031L1314.59 664.835C1209.33 705.397 1091.84 699.578 991.109 648.817V648.817C884.399 595.044 759.224 591.853 649.913 640.12L579.98 671C497.448 707.442 402.969 705.212 322.25 664.914V664.914C216.984 612.363 90.8134 625.5 -1.36903 698.609L-22.7345 715.553C-126.389 797.761 -271.078 804.229 -381.655 731.6V731.6C-450.316 686.502 -534.2 670.835 -614.51 688.111L-628.181 691.052C-703.011 707.15 -781.084 697.532 -849.77 663.754L-953.233 612.874" stroke="#E9E9E9" stroke-width="2"/>
<path opacity="0.350847" d="M1811.83 661.251L1622.82 637.135C1536.86 626.168 1449.53 636.87 1368.76 668.268L1313.61 689.707C1210.88 729.646 1095.99 723.924 997.734 673.974V673.974C893.651 621.063 771.253 617.926 664.596 665.435L596.441 695.793C515.907 731.666 423.52 729.473 344.779 689.818V689.818C242.164 638.141 118.841 651.028 29.1274 722.804L7.92699 739.765C-93.0387 820.543 -234.609 826.889 -342.398 755.47V755.47C-409.358 711.103 -491.409 695.685 -569.907 712.719L-582.999 715.56C-656.026 731.407 -732.272 721.95 -799.215 688.741L-900.335 638.577" stroke="#E9E9E9" stroke-width="2"/>
<path opacity="0.366102" d="M1798.61 686.603L1614.32 662.875C1530.4 652.071 1445.12 662.606 1366.36 693.505L1312.64 714.579C1212.42 753.894 1100.15 748.268 1004.36 699.131V699.131C902.903 647.084 783.283 644 679.279 690.75L612.903 720.587C534.367 755.889 444.07 753.733 367.308 714.722V714.722C267.345 663.92 146.869 676.558 59.623 746.996L38.5892 763.978C-59.6875 843.322 -198.14 849.546 -303.14 779.339V779.339C-368.399 735.704 -448.618 720.535 -525.305 737.328L-537.816 740.068C-609.041 755.665 -683.461 746.368 -748.66 713.729L-847.436 664.28" stroke="#E9E9E9" stroke-width="2"/>
<path opacity="0.381356" d="M1785.38 711.955L1605.82 688.616C1523.95 677.975 1440.71 688.342 1363.95 718.742L1311.67 739.449C1213.97 778.141 1104.3 772.611 1010.99 724.288V724.288C912.156 673.106 795.311 670.076 693.961 716.067L629.365 745.38C552.827 780.111 464.62 777.992 389.838 739.626V739.626C292.527 689.702 174.896 702.088 90.1178 771.185L69.252 788.192C-26.3359 866.1 -161.672 872.2 -263.882 803.208V803.208C-327.441 760.306 -405.828 745.385 -480.704 761.938L-492.633 764.575C-562.055 779.923 -634.649 770.787 -698.105 738.719L-794.538 689.983" stroke="#E9E9E9" stroke-width="2"/>
<path opacity="0.39661" d="M1772.16 737.308L1597.32 714.357C1517.49 703.878 1436.31 714.078 1361.55 743.978L1310.69 764.318C1215.51 802.387 1108.45 796.954 1017.61 749.445V749.445C921.409 699.129 807.339 696.153 708.644 741.384L645.828 770.172C571.289 804.332 485.169 802.25 412.367 764.529V764.529C317.709 715.484 202.923 727.618 120.612 795.371L99.9158 812.406C7.01646 888.874 -125.204 894.851 -224.624 827.076V827.076C-286.482 784.908 -363.039 770.237 -436.104 786.55L-447.45 789.083C-515.07 804.18 -585.838 795.206 -647.549 763.709L-741.639 715.686" stroke="#E9E9E9" stroke-width="2"/>
<path opacity="0.411864" d="M1758.94 762.66L1588.82 740.099C1511.03 729.782 1431.9 739.814 1359.14 769.215L1309.72 789.187C1217.06 826.632 1112.6 821.295 1024.24 774.602V774.602C930.663 725.154 819.367 722.232 723.326 766.702L662.29 794.963C589.75 828.551 505.718 826.508 434.897 789.433V789.433C342.891 741.268 230.95 753.149 151.104 819.553L130.58 836.622C40.3689 911.646 -88.7375 917.499 -185.367 850.944V850.944C-245.523 809.511 -320.252 795.089 -391.506 811.163L-402.268 813.59C-468.084 828.437 -537.026 819.625 -596.992 788.702L-688.741 741.389" stroke="#E9E9E9" stroke-width="2"/>
<path opacity="0.427119" d="M1745.71 788.012L1580.33 765.841C1504.58 755.686 1427.49 765.55 1356.74 794.451L1308.75 814.054C1218.61 850.875 1116.75 845.635 1030.86 799.759V799.759C939.917 751.18 831.393 748.312 738.008 792.02L678.752 819.754C608.212 852.77 526.266 850.764 457.426 814.336V814.336C368.075 767.055 258.976 778.681 181.595 843.731L161.245 860.838C73.7224 934.415 -52.2711 940.142 -146.109 874.811V874.811C-204.563 834.114 -277.465 819.943 -346.909 835.777L-357.085 838.098C-421.097 852.693 -488.214 844.044 -546.435 813.696L-635.842 767.092" stroke="#E9E9E9" stroke-width="2"/>
<path opacity="0.442373" d="M1732.49 813.364L1571.83 791.584C1498.12 781.59 1423.08 791.287 1354.33 819.687L1307.78 838.92C1220.16 875.116 1120.9 869.973 1037.49 824.916V824.916C949.173 777.207 843.418 774.394 752.69 817.339L695.215 844.544C626.675 876.987 546.814 875.018 479.956 839.239V839.239C393.258 792.843 287.001 804.214 212.085 867.905L191.911 885.056C107.076 957.18 -15.8056 962.782 -106.852 898.677V898.677C-163.604 858.718 -234.679 844.797 -302.313 860.393L-311.902 862.605C-374.111 876.95 -439.403 868.464 -495.877 838.693L-582.944 792.795" stroke="#E9E9E9" stroke-width="2"/>
<path opacity="0.457627" d="M1719.26 838.717L1563.34 817.327C1491.67 807.495 1418.67 817.023 1351.93 844.922L1306.8 863.784C1221.71 899.355 1125.05 894.31 1044.12 850.073V850.073C958.428 803.237 855.443 800.478 767.371 842.659L711.677 869.334C645.138 901.202 567.361 899.272 502.485 864.142V864.142C418.442 818.634 315.027 829.748 242.573 892.075L222.579 909.275C140.43 979.941 20.6591 985.418 -67.5951 922.543V922.543C-122.645 883.323 -191.895 869.653 -257.719 885.012L-266.719 887.112C-327.124 901.206 -390.591 892.883 -445.319 863.691L-530.045 818.498" stroke="#E9E9E9" stroke-width="2"/>
<path opacity="0.472881" d="M1706.04 864.069L1554.85 843.071C1485.22 833.4 1414.27 842.76 1349.53 870.158L1305.83 888.647C1223.26 923.593 1129.2 918.646 1050.74 875.23V875.23C967.685 829.268 867.466 826.564 782.053 867.981L728.14 894.122C663.603 925.416 587.908 923.524 525.015 889.045V889.045C443.627 844.427 343.052 855.283 273.059 916.24L253.247 933.495C173.786 1002.7 57.1234 1008.05 -28.3382 946.407V946.407C-81.6857 907.929 -149.112 894.51 -213.127 909.632L-221.536 911.618C-280.136 925.461 -341.779 917.303 -394.76 888.692L-477.146 844.201" stroke="#E9E9E9" stroke-width="2"/>
<path opacity="0.488136" d="M1692.81 889.421L1546.36 868.816C1478.76 859.306 1409.86 868.497 1347.12 895.393L1304.86 913.508C1224.81 947.828 1133.35 942.979 1057.37 900.387V900.387C976.943 855.302 879.489 852.653 796.734 893.303L744.602 918.91C682.068 949.628 608.454 947.774 547.545 913.948V913.948C468.812 870.223 371.076 880.819 303.543 940.401L283.917 957.716C207.141 1025.45 93.5868 1030.67 10.9183 970.27V970.27C-40.7261 932.535 -106.33 919.368 -168.536 934.254L-176.353 936.125C-233.148 949.716 -292.967 941.722 -344.201 913.695L-424.248 869.904" stroke="#E9E9E9" stroke-width="2"/>
<path opacity="0.50339" d="M1679.59 914.774L1537.87 894.561C1472.31 885.212 1405.45 894.235 1344.72 920.627L1303.89 938.368C1226.36 972.062 1137.49 967.311 1063.99 925.544V925.544C986.201 881.338 891.51 878.744 811.415 918.626L761.065 943.697C700.534 973.838 629 972.022 570.075 938.85V938.85C493.998 896.022 399.1 906.356 334.024 964.556L314.588 981.938C240.498 1048.2 130.05 1053.29 50.175 994.133V994.133C0.233984 957.142 -63.55 944.228 -123.946 958.879L-131.17 960.632C-186.16 973.971 -244.155 966.143 -293.64 938.701L-371.349 895.607" stroke="#E9E9E9" stroke-width="2"/>
<path opacity="0.518644" d="M1666.36 940.126L1529.38 920.308C1465.86 911.118 1401.04 919.973 1342.31 945.861L1302.93 963.226C1227.92 996.292 1141.64 991.641 1070.62 950.701V950.701C995.461 907.376 903.53 904.838 826.096 943.951L777.528 968.483C719 998.046 649.544 996.269 592.605 963.752V963.752C519.184 921.824 427.123 931.895 364.503 988.705L345.261 1006.16C273.855 1070.94 166.512 1075.91 89.4313 1017.99V1017.99C41.194 981.751 -20.7714 969.09 -79.3594 983.507L-85.9872 985.138C-139.171 998.225 -195.343 990.563 -243.079 963.71L-318.451 921.311" stroke="#E9E9E9" stroke-width="2"/>
<path opacity="0.533898" d="M1653.14 965.478L1520.9 946.056C1459.41 937.026 1396.63 945.712 1339.91 971.095L1301.96 988.081C1229.47 1020.52 1145.78 1015.97 1077.25 975.859V975.859C1004.72 933.417 915.549 930.935 840.776 969.277L793.991 993.267C737.468 1022.25 670.088 1020.51 615.135 988.654V988.654C544.371 947.63 455.145 957.436 394.979 1012.85L375.935 1030.39C307.213 1093.68 202.973 1098.51 128.687 1041.85V1041.85C82.1541 1006.36 22.0053 993.954 -34.7744 1008.14L-40.8043 1009.64C-92.182 1022.48 -146.531 1014.98 -192.517 988.722L-265.552 947.014" stroke="#E9E9E9" stroke-width="2"/>
<path opacity="0.549153" d="M1639.91 990.831L1512.41 971.804C1452.97 962.933 1392.22 971.45 1337.51 996.328L1300.99 1012.93C1231.03 1044.74 1149.93 1040.29 1083.87 1001.02V1001.02C1013.98 959.462 927.566 957.036 855.457 994.605L810.454 1018.05C755.937 1046.45 690.631 1044.75 637.665 1013.56V1013.56C569.559 973.44 483.167 982.978 425.452 1036.98L406.612 1054.61C340.571 1116.41 239.433 1121.11 167.943 1065.71V1065.71C123.115 1030.97 64.7804 1018.82 9.80879 1032.77L4.37876 1034.15C-45.1922 1046.73 -97.7189 1039.4 -141.955 1013.74L-212.654 972.717" stroke="#E9E9E9" stroke-width="2"/>
</g>
<defs>
<clipPath id="clip0_13_2">
<rect width="1512" height="982" fill="white"/>
</clipPath>
</defs>
</svg>
