<svg width="126" height="86" viewBox="0 0 126 86" fill="none" xmlns="http://www.w3.org/2000/svg">
<g filter="url(#filter0_d_8_14455)">
<g clip-path="url(#clip0_8_14455)">
<path fill-rule="evenodd" clip-rule="evenodd" d="M31.7322 29.702C31.7322 29.3042 31.6024 28.9227 31.3713 28.6414C31.1402 28.3601 30.8268 28.202 30.5 28.202C30.1733 28.202 29.8599 28.3601 29.6288 28.6414C29.3977 28.9227 29.2679 29.3042 29.2679 29.702V54.3C29.2679 54.6979 29.3977 55.0794 29.6288 55.3607C29.8599 55.642 30.1733 55.8 30.5 55.8C30.8268 55.8 31.1402 55.642 31.3713 55.3607C31.6024 55.0794 31.7322 54.6979 31.7322 54.3V29.702ZM25.5715 32.932C25.8983 32.932 26.2117 33.0901 26.4427 33.3714C26.6738 33.6527 26.8036 34.0342 26.8036 34.432V49.568C26.8036 49.9659 26.6738 50.3474 26.4427 50.6287C26.2117 50.91 25.8983 51.068 25.5715 51.068C25.2447 51.068 24.9313 50.91 24.7002 50.6287C24.4692 50.3474 24.3393 49.9659 24.3393 49.568V34.432C24.3393 34.0342 24.4692 33.6527 24.7002 33.3714C24.9313 33.0901 25.2447 32.932 25.5715 32.932ZM20.6429 37.662C20.9697 37.662 21.2831 37.8201 21.5142 38.1014C21.7452 38.3827 21.8751 38.7642 21.8751 39.162V44.84C21.8751 45.2379 21.7452 45.6194 21.5142 45.9007C21.2831 46.182 20.9697 46.34 20.6429 46.34C20.3161 46.34 20.0027 46.182 19.7717 45.9007C19.5406 45.6194 19.4108 45.2379 19.4108 44.84V39.162C19.4108 38.7642 19.5406 38.3827 19.7717 38.1014C20.0027 37.8201 20.3161 37.662 20.6429 37.662ZM35.4286 32.932C35.7554 32.932 36.0688 33.0901 36.2999 33.3714C36.5309 33.6527 36.6608 34.0342 36.6608 34.432V49.568C36.6608 49.9659 36.5309 50.3474 36.2999 50.6287C36.0688 50.91 35.7554 51.068 35.4286 51.068C35.1018 51.068 34.7884 50.91 34.5574 50.6287C34.3263 50.3474 34.1965 49.9659 34.1965 49.568V34.432C34.1965 34.0342 34.3263 33.6527 34.5574 33.3714C34.7884 33.0901 35.1018 32.932 35.4286 32.932ZM41.5893 39.162C41.5893 38.7642 41.4595 38.3827 41.2284 38.1014C40.9974 37.8201 40.684 37.662 40.3572 37.662C40.0304 37.662 39.717 37.8201 39.4859 38.1014C39.2549 38.3827 39.125 38.7642 39.125 39.162V44.84C39.125 45.2379 39.2549 45.6194 39.4859 45.9007C39.717 46.182 40.0304 46.34 40.3572 46.34C40.684 46.34 40.9974 46.182 41.2284 45.9007C41.4595 45.6194 41.5893 45.2379 41.5893 44.84V39.162Z" fill="#3DB3CC"/>
</g>
<g clip-path="url(#clip1_8_14455)">
<path fill-rule="evenodd" clip-rule="evenodd" d="M94.7322 29.702C94.7322 29.3042 94.6024 28.9227 94.3713 28.6414C94.1402 28.3601 93.8268 28.202 93.5 28.202C93.1733 28.202 92.8599 28.3601 92.6288 28.6414C92.3977 28.9227 92.2679 29.3042 92.2679 29.702V54.3C92.2679 54.6979 92.3977 55.0794 92.6288 55.3607C92.8599 55.642 93.1733 55.8 93.5 55.8C93.8268 55.8 94.1402 55.642 94.3713 55.3607C94.6024 55.0794 94.7322 54.6979 94.7322 54.3V29.702ZM88.5715 32.932C88.8983 32.932 89.2117 33.0901 89.4427 33.3714C89.6738 33.6527 89.8036 34.0342 89.8036 34.432V49.568C89.8036 49.9659 89.6738 50.3474 89.4427 50.6287C89.2117 50.91 88.8983 51.068 88.5715 51.068C88.2447 51.068 87.9313 50.91 87.7002 50.6287C87.4692 50.3474 87.3393 49.9659 87.3393 49.568V34.432C87.3393 34.0342 87.4692 33.6527 87.7002 33.3714C87.9313 33.0901 88.2447 32.932 88.5715 32.932ZM83.6429 37.662C83.9697 37.662 84.2831 37.8201 84.5142 38.1014C84.7452 38.3827 84.8751 38.7642 84.8751 39.162V44.84C84.8751 45.2379 84.7452 45.6194 84.5142 45.9007C84.2831 46.182 83.9697 46.34 83.6429 46.34C83.3161 46.34 83.0027 46.182 82.7717 45.9007C82.5406 45.6194 82.4108 45.2379 82.4108 44.84V39.162C82.4108 38.7642 82.5406 38.3827 82.7717 38.1014C83.0027 37.8201 83.3161 37.662 83.6429 37.662ZM98.4286 32.932C98.7554 32.932 99.0688 33.0901 99.2999 33.3714C99.5309 33.6527 99.6608 34.0342 99.6608 34.432V49.568C99.6608 49.9659 99.5309 50.3474 99.2999 50.6287C99.0688 50.91 98.7554 51.068 98.4286 51.068C98.1018 51.068 97.7884 50.91 97.5574 50.6287C97.3263 50.3474 97.1965 49.9659 97.1965 49.568V34.432C97.1965 34.0342 97.3263 33.6527 97.5574 33.3714C97.7884 33.0901 98.1018 32.932 98.4286 32.932ZM104.589 39.162C104.589 38.7642 104.46 38.3827 104.228 38.1014C103.997 37.8201 103.684 37.662 103.357 37.662C103.03 37.662 102.717 37.8201 102.486 38.1014C102.255 38.3827 102.125 38.7642 102.125 39.162V44.84C102.125 45.2379 102.255 45.6194 102.486 45.9007C102.717 46.182 103.03 46.34 103.357 46.34C103.684 46.34 103.997 46.182 104.228 45.9007C104.46 45.6194 104.589 45.2379 104.589 44.84V39.162Z" fill="#3DB3CC"/>
</g>
<g clip-path="url(#clip2_8_14455)">
<path fill-rule="evenodd" clip-rule="evenodd" d="M63.9932 21.759C63.9932 21.1141 63.7861 20.4956 63.4177 20.0396C63.0492 19.5836 62.5494 19.3275 62.0283 19.3275C61.5072 19.3275 61.0074 19.5836 60.6389 20.0396C60.2704 20.4956 60.0634 21.1141 60.0634 21.759V61.6331C60.0634 62.278 60.2704 62.8965 60.6389 63.3525C61.0074 63.8085 61.5072 64.0647 62.0283 64.0647C62.5494 64.0647 63.0492 63.8085 63.4177 63.3525C63.7861 62.8965 63.9932 62.278 63.9932 61.6331V21.759ZM54.1688 26.9949C54.6899 26.9949 55.1897 27.2511 55.5581 27.7071C55.9266 28.1631 56.1336 28.7816 56.1336 29.4265V53.9624C56.1336 54.6073 55.9266 55.2258 55.5581 55.6818C55.1897 56.1378 54.6899 56.394 54.1688 56.394C53.6476 56.394 53.1479 56.1378 52.7794 55.6818C52.4109 55.2258 52.2039 54.6073 52.2039 53.9624V29.4265C52.2039 28.7816 52.4109 28.1631 52.7794 27.7071C53.1479 27.2511 53.6476 26.9949 54.1688 26.9949ZM46.3092 34.6624C46.8304 34.6624 47.3301 34.9186 47.6986 35.3746C48.0671 35.8306 48.2741 36.4491 48.2741 37.094V46.2982C48.2741 46.9431 48.0671 47.5615 47.6986 48.0175C47.3301 48.4735 46.8304 48.7297 46.3092 48.7297C45.7881 48.7297 45.2883 48.4735 44.9199 48.0175C44.5514 47.5615 44.3444 46.9431 44.3444 46.2982V37.094C44.3444 36.4491 44.5514 35.8306 44.9199 35.3746C45.2883 34.9186 45.7881 34.6624 46.3092 34.6624ZM69.8878 26.9949C70.4089 26.9949 70.9087 27.2511 71.2772 27.7071C71.6457 28.1631 71.8527 28.7816 71.8527 29.4265V53.9624C71.8527 54.6073 71.6457 55.2258 71.2772 55.6818C70.9087 56.1378 70.4089 56.394 69.8878 56.394C69.3667 56.394 68.8669 56.1378 68.4984 55.6818C68.1299 55.2258 67.9229 54.6073 67.9229 53.9624V29.4265C67.9229 28.7816 68.1299 28.1631 68.4984 27.7071C68.8669 27.2511 69.3667 26.9949 69.8878 26.9949ZM79.7122 37.094C79.7122 36.4491 79.5052 35.8306 79.1367 35.3746C78.7682 34.9186 78.2684 34.6624 77.7473 34.6624C77.2262 34.6624 76.7264 34.9186 76.3579 35.3746C75.9894 35.8306 75.7824 36.4491 75.7824 37.094V46.2982C75.7824 46.9431 75.9894 47.5615 76.3579 48.0175C76.7264 48.4735 77.2262 48.7297 77.7473 48.7297C78.2684 48.7297 78.7682 48.4735 79.1367 48.0175C79.5052 47.5615 79.7122 46.9431 79.7122 46.2982V37.094Z" fill="#3DB3CC"/>
</g>
</g>
<defs>
<filter id="filter0_d_8_14455" x="0" y="0" width="126" height="85.3889" filterUnits="userSpaceOnUse" color-interpolation-filters="sRGB">
<feFlood flood-opacity="0" result="BackgroundImageFix"/>
<feColorMatrix in="SourceAlpha" type="matrix" values="0 0 0 0 0 0 0 0 0 0 0 0 0 0 0 0 0 0 127 0" result="hardAlpha"/>
<feOffset dx="1" dy="1"/>
<feGaussianBlur stdDeviation="10"/>
<feComposite in2="hardAlpha" operator="out"/>
<feColorMatrix type="matrix" values="0 0 0 0 1 0 0 0 0 1 0 0 0 0 1 0 0 0 0.25 0"/>
<feBlend mode="normal" in2="BackgroundImageFix" result="effect1_dropShadow_8_14455"/>
<feBlend mode="normal" in="SourceGraphic" in2="effect1_dropShadow_8_14455" result="shape"/>
</filter>
<clipPath id="clip0_8_14455">
<rect width="23" height="28" fill="white" transform="translate(19 28)"/>
</clipPath>
<clipPath id="clip1_8_14455">
<rect width="23" height="28" fill="white" transform="translate(82 28)"/>
</clipPath>
<clipPath id="clip2_8_14455">
<rect width="36.6778" height="45.3889" fill="white" transform="translate(43.6895 19)"/>
</clipPath>
</defs>
</svg>
