<svg width="30" height="30" viewBox="0 0 30 30" fill="none" xmlns="http://www.w3.org/2000/svg">
<path d="M5.64374 25.1925L13.4712 17.365C14.0962 17.8975 14.815 18.3096 15.6275 18.6012C16.44 18.8929 17.2567 19.0387 18.0775 19.0387C20.0792 19.0387 21.7733 18.3458 23.16 16.96C24.5467 15.5733 25.24 13.8796 25.24 11.8787C25.24 9.87791 24.5475 8.18333 23.1625 6.79499C21.7767 5.40583 20.0833 4.71124 18.0825 4.71124C16.0808 4.71124 14.3858 5.40458 12.9975 6.79124C11.6092 8.17791 10.915 9.87249 10.915 11.875C10.915 12.7433 11.0687 13.5837 11.3762 14.3962C11.6846 15.2087 12.0887 15.9037 12.5887 16.4812L4.76124 24.3075L5.64374 25.1925ZM18.0775 17.7875C16.4192 17.7875 15.0187 17.2167 13.8762 16.075C12.7346 14.9333 12.1637 13.5329 12.1637 11.8737C12.1637 10.2154 12.7346 8.81541 13.8762 7.67374C15.0179 6.53208 16.4179 5.96124 18.0762 5.96124C19.7346 5.96124 21.135 6.53208 22.2775 7.67374C23.4192 8.81541 23.99 10.2154 23.99 11.8737C23.99 13.5321 23.4192 14.9321 22.2775 16.0737C21.1358 17.2154 19.7358 17.7875 18.0775 17.7875Z" fill="white"/>
</svg>
